<?xml version="1.0"?>
<svg xmlns="http://www.w3.org/2000/svg" xmlns:xlink="http://www.w3.org/1999/xlink" xmlns:svgjs="http://svgjs.com/svgjs" version="1.1" width="512" height="512" x="0" y="0" viewBox="0 0 412.913 412.913" style="enable-background:new 0 0 512 512" xml:space="preserve" class=""><g>
<path xmlns="http://www.w3.org/2000/svg" style="" d="M343.454,170.099c0.01-0.583,0.022-1.165,0.022-1.75c0-55.728-45.177-100.905-100.905-100.905  c-48.025,0-88.209,33.551-98.403,78.492c-9.505-5.321-20.454-8.368-32.122-8.368c-36.407,0-65.92,29.514-65.92,65.92  c0,1.488,0.067,2.959,0.164,4.423C19.262,217.944,0,243.959,0,274.479c0,39.207,31.784,70.991,70.991,70.991h253.183  c49.009,0,88.739-39.73,88.739-88.739C412.913,214.343,383.192,178.903,343.454,170.099z" fill="#4dc7e4" data-original="#1ea6c6" class=""/>
<g xmlns="http://www.w3.org/2000/svg">
</g>
<g xmlns="http://www.w3.org/2000/svg">
</g>
<g xmlns="http://www.w3.org/2000/svg">
</g>
<g xmlns="http://www.w3.org/2000/svg">
</g>
<g xmlns="http://www.w3.org/2000/svg">
</g>
<g xmlns="http://www.w3.org/2000/svg">
</g>
<g xmlns="http://www.w3.org/2000/svg">
</g>
<g xmlns="http://www.w3.org/2000/svg">
</g>
<g xmlns="http://www.w3.org/2000/svg">
</g>
<g xmlns="http://www.w3.org/2000/svg">
</g>
<g xmlns="http://www.w3.org/2000/svg">
</g>
<g xmlns="http://www.w3.org/2000/svg">
</g>
<g xmlns="http://www.w3.org/2000/svg">
</g>
<g xmlns="http://www.w3.org/2000/svg">
</g>
<g xmlns="http://www.w3.org/2000/svg">
</g>
</g></svg>
